<?xml version="1.0" encoding="UTF-8" standalone="no"?>
<!-- Created with Inkscape (http://www.inkscape.org/) -->

<svg
   version="1.1"
   id="svg2"
   width="635.66486"
   height="589.20502"
   viewBox="0 0 635.66486 589.20502"
   sodipodi:docname="logo.svg"
   inkscape:version="1.2.2 (b0a8486541, 2022-12-01)"
   xmlns:inkscape="http://www.inkscape.org/namespaces/inkscape"
   xmlns:sodipodi="http://sodipodi.sourceforge.net/DTD/sodipodi-0.dtd"
   xmlns="http://www.w3.org/2000/svg"
   xmlns:svg="http://www.w3.org/2000/svg">
  <defs
     id="defs6" />
  <sodipodi:namedview
     id="namedview4"
     pagecolor="#ffffff"
     bordercolor="#000000"
     borderopacity="0.25"
     inkscape:showpageshadow="2"
     inkscape:pageopacity="0.0"
     inkscape:pagecheckerboard="0"
     inkscape:deskcolor="#d1d1d1"
     showgrid="false"
     inkscape:zoom="0.35197924"
     inkscape:cx="598.04663"
     inkscape:cy="352.2935"
     inkscape:window-width="1366"
     inkscape:window-height="739"
     inkscape:window-x="0"
     inkscape:window-y="0"
     inkscape:window-maximized="1"
     inkscape:current-layer="g8" />
  <g
     inkscape:groupmode="layer"
     inkscape:label="Image"
     id="g8"
     transform="translate(830.23744,-132.71199)">
    <path
       style="fill:#25b53b;fill-opacity:1"
       d="m -513.77538,716.67662 c -6.25689,-6.27652 -7.38173,-10.30234 -7.62503,-27.29016 -0.18025,-12.58575 0.77925,-15.10081 6.86228,-17.98739 4.88754,-2.3193 12.50376,-1.56976 15.83332,1.55821 4.02948,3.78549 2.91686,12.76108 -1.25532,10.12682 -0.57274,-0.36161 -1.88278,-2.45748 -2.91121,-4.65748 -2.12916,-4.55466 -5.91451,-5.80873 -8.8059,-2.91735 -1.47892,1.47893 -1.65162,3.75672 -1.37571,18.14483 0.30496,15.90317 0.39448,16.51747 2.67629,18.36306 1.29844,1.0502 2.95379,1.90946 3.67858,1.90946 2.22927,0 4.46064,-2.99622 4.46064,-5.98964 0,-5.87775 2.95164,-7.91586 6.42857,-4.43893 3.6484,3.6484 0.54176,11.07278 -5.95376,14.22855 -2.46115,1.19571 -4.47481,2.62987 -4.47481,3.18702 0,2.20289 -2.54325,0.77335 -7.53794,-4.237 z m -54.36041,-0.83604 -2.39836,-0.95927 0.67211,-13.22735 c 1.66046,-32.67845 1.54154,-32.3345 10.84364,-31.36223 3.20747,0.33524 7.05783,0.92488 8.55636,1.3103 l 2.7246,0.70077 -2.5,0.71223 c -1.375,0.39173 -4.13125,0.75709 -6.125,0.81191 -3.22992,0.0888 -3.69312,0.44027 -4.25,3.22468 -0.34375,1.71875 -0.625,4.63219 -0.625,6.47432 0,3.56891 2.16286,5.31732 8.44785,6.82905 2.28254,0.54902 2.62107,0.91578 1.5,1.62503 -0.79632,0.50378 -2.68535,0.92287 -4.19785,0.93129 -4.27569,0.0238 -6.43378,2.98269 -7.23964,9.92604 -0.93638,8.0679 0.63075,10.68797 6.96047,11.63717 2.47981,0.37187 4.26179,1.07572 3.95994,1.56411 -0.72666,1.17576 -13.27484,1.02357 -16.32912,-0.19805 z m 113.27262,-6.58264 c -1.16915,-0.24082 -3.14049,-1.51803 -4.38077,-2.83824 -2.95949,-3.15023 -7.9645,-20.76893 -8.69532,-30.60935 -0.50282,-6.77044 -0.33893,-7.84298 1.4757,-9.65761 3.03268,-3.03268 12.25582,-4.87067 16.21402,-3.23113 3.5524,1.47145 6.40931,6.17816 5.49624,9.05499 -0.89446,2.81817 -2.07967,2.44346 -6.48414,-2.04998 -4.19656,-4.28133 -7.80253,-5.14779 -10.06722,-2.41901 -1.0591,1.27614 -1.08488,2.90604 -0.1337,8.45289 1.6573,9.66466 6.97167,25.73687 9.27,28.0352 4.27411,4.27411 7.93092,1.21229 7.93092,-6.64051 0,-4.7619 0.24561,-5.42857 2,-5.42857 4.79074,0 7.88851,7.94194 4.7182,12.09632 -2.70502,3.54466 -11.97151,6.34161 -17.34393,5.235 z m -166.37427,-4.72124 c 0,-5.23945 6.46224,-33.44826 8.67321,-37.86008 1.24012,-2.47456 1.90141,-2.74944 6.60247,-2.74442 6.1926,0.007 13.0163,1.71296 12.1909,3.04849 -0.32154,0.52026 -2.33296,0.94593 -4.46983,0.94593 -5.49274,0 -9.19121,3.35784 -9.36496,8.50243 -0.11375,3.36817 0.30781,4.18261 3.07969,5.94995 4.09765,2.61264 4.10772,3.54376 0.0385,3.56293 -1.7875,0.008 -3.80826,0.36986 -4.49058,0.8032 -0.68231,0.43333 -2.12404,4.24222 -3.20384,8.46418 -2.53424,9.90886 -3.55146,11.71731 -6.59074,11.71731 -1.9322,0 -2.46482,-0.51644 -2.46482,-2.38992 z m -39.75,-9.83057 c -2.98932,-1.4417 -2.94301,-5.1733 0.2558,-20.61329 5.53638,-26.7229 2.91409,-27.93601 -9.0058,-4.16622 -3.44762,6.875 -7.25187,13.625 -8.45389,15 l -2.18549,2.5 0.64731,-2.98336 c 1.34128,-6.18177 16.18056,-38.58805 18.2579,-39.87191 0.694,-0.42892 8.90651,2.69427 10.02453,3.8123 0.20013,0.20012 -1.05484,7.41601 -2.78882,16.0353 -1.73397,8.61928 -2.88193,16.37699 -2.55101,17.23935 0.91485,2.38406 4.67971,-1.5953 8.57984,-9.06866 5.82316,-11.15823 10.37044,-18.66302 11.30825,-18.66302 2.03171,0 -0.52278,7.40555 -7.76442,22.50938 -4.18584,8.73036 -8.34717,16.68726 -9.2474,17.682 -1.8345,2.02711 -3.76111,2.18722 -7.0768,0.58813 z m 256.02817,-5.03263 c -5.57229,-9.44431 -16.71753,-36.22697 -15.73615,-37.81487 0.76564,-1.23883 6.45798,-1.20269 6.45798,0.041 0,0.53516 3.6,9.06972 8,18.96569 4.4,9.89597 8,18.90811 8,20.02698 0,3.44342 -4.44678,2.63713 -6.72183,-1.2188 z m 36.36327,-16.81428 c -6.88605,-5.41657 -20.64144,-27.04929 -20.64144,-32.46222 0,-2.17499 0.9535,-3.98055 3.25,-6.15422 6.87993,-6.51195 12.66171,-7.18571 17.73039,-2.06616 4.32244,4.36583 16.62511,23.02463 18.07206,27.40891 1.07108,3.24541 0.93511,3.79001 -1.79177,7.17651 -3.08142,3.82678 -9.602,8.11988 -12.37582,8.14813 -0.88833,0.009 -2.79787,-0.91388 -4.24342,-2.05095 z m 13.02951,-5.07448 c 1.93357,-1.60472 -0.25584,-6.15956 -9.89398,-20.58335 -7.76914,-11.62677 -9.20937,-13.27477 -11.60116,-13.27477 -3.17513,0 -7.17581,2.50011 -7.17581,4.48433 0,1.98822 14.05889,23.33447 18.35732,27.87275 3.09008,3.2625 4.07548,3.75111 6.39237,3.16961 1.50651,-0.37811 3.27108,-1.12897 3.92126,-1.66857 z m -358.06364,-1.68448 c -0.63717,-1.03098 4.82144,-9.92025 13.65746,-22.241 10.93474,-15.24714 12.8626,-16.89394 15.73108,-13.43765 1.52788,1.84099 1.28346,2.23896 -12.75574,20.77023 -5.73566,7.57087 -11.25651,14.20837 -12.26855,14.75 -2.24559,1.2018 -3.68706,1.25413 -4.36425,0.15842 z m 158.89269,-16.2799 c -23.98953,-3.448 -45.4506,-9.31787 -65.63826,-17.95288 -19.74291,-8.44477 -24.65399,-11.03491 -38.86174,-20.49603 -17.03701,-11.34515 -27.49684,-19.8361 -40.52221,-32.89459 -36.35125,-36.4437 -58.40684,-84.99884 -62.59409,-137.80024 -4.07094,-51.33482 13.21732,-107.0647 45.76726,-147.53383 33.24348,-41.3314 81.3187,-72.51343 130.40174,-84.57976 16.56023,-4.07108 29.95187,-5.71629 51.59343,-6.33845 56.2549,-1.61721 99.67587,10.13536 142.40507,38.5442 69.31682,46.08583 106.33658,115.04609 103.66233,193.10178 -1.06994,31.22921 -7.18416,55.35149 -22.23278,87.71445 -2.34224,5.03711 -5.5656,11.11211 -7.16303,13.5 -1.59743,2.38789 -3.40934,5.51672 -4.02646,6.95296 -2.32333,5.40715 -18.36386,24.0128 -35.76675,41.4864 -18.51138,18.58659 -24.11019,22.92301 -46.05223,35.6686 -20.26657,11.77234 -49.0393,22.73207 -69.97228,26.65291 -24.10851,4.51563 -63.71407,6.45898 -81,3.97448 z m 54.87388,-11.90359 c 15.6559,-4.14085 30.28538,-12.71838 42.465,-24.89799 10.47568,-10.47569 18.23611,-23.12832 23.44489,-38.22464 0.49325,-1.42956 3.46289,-1.6879 23.88975,-2.0783 23.26974,-0.44473 23.35047,-0.45393 33.18915,-3.78117 22.46121,-7.5959 41.40669,-23.38324 51.50477,-42.91911 6.55063,-12.67293 10.32657,-25.91811 10.85842,-38.08894 0.89875,-20.56703 -6.71419,-42.37601 -20.92883,-59.95534 l -4.70298,-5.8162 4.51854,-5.81898 c 13.31922,-17.15252 19.2628,-36.25851 18.09912,-58.18064 -0.69245,-13.04474 -3.30312,-22.68387 -9.27578,-34.24803 -7.8782,-15.25364 -22.09437,-29.83412 -36.43593,-37.36966 -9.48531,-4.98389 -23.44412,-9.62918 -31.76659,-10.57145 -5.84934,-0.66226 -30.07222,0.0395 -42.17514,1.22177 -1.98257,0.19367 -2.56325,-0.32562 -3.08794,-2.76147 -1.63276,-7.58011 -12.93105,-25.44362 -22.26605,-35.20442 -10.50944,-10.98881 -27.09182,-20.93799 -41.20428,-24.72194 -13.79193,-3.69802 -42.75897,-2.89542 -57.2979,1.58757 -25.31017,7.80422 -51.15869,32.88157 -58.21448,56.47771 l -1.23763,4.13891 -20.625,0.4849 c -17.33717,0.40759 -21.82056,0.83515 -28.12499,2.68211 -25.21003,7.38562 -45.50616,24.08098 -56.59593,46.55516 -6.90897,14.00149 -8.84269,22.7142 -8.87772,40 -0.0278,13.70775 1.02153,19.39641 5.99764,32.51497 2.34592,6.18459 4.80324,10.20384 12.22601,19.99718 1.7875,2.35836 3.25,5.16138 3.25,6.22892 0,1.06755 -1.58702,3.79507 -3.5267,6.06116 -3.72146,4.34769 -13.31958,22.99923 -15.86252,30.82484 -0.82697,2.54488 -2.03601,8.61988 -2.68677,13.5 -5.09917,38.23918 14.8805,73.28981 51.58016,90.48786 14.95666,7.00892 37.05681,10.61281 53.63673,8.74658 4.59751,-0.51749 9.30599,-0.70593 10.4633,-0.41875 1.52446,0.3783 3.93552,4.2416 8.75113,14.02215 7.64224,15.52148 14.12066,23.25579 28.55121,34.08609 19.06857,14.3112 34.4353,18.78463 61.59346,17.93055 8.84435,-0.27814 15.517,-1.07456 20.87388,-2.4914 z m -37.12839,-13.06683 c -14.45708,-2.2292 -33.87953,-11.6526 -43.17423,-20.94729 -11.53737,-11.53738 -20.08196,-28.43339 -22.57791,-44.64543 l -0.64191,-4.1694 7.55989,-5.10137 c 4.15794,-2.80574 10.49943,-7.85115 14.09219,-11.21201 l 6.53231,-6.11065 9.23208,2.58192 c 15.38473,4.30261 25.01955,5.68091 39.71157,5.68091 15.5411,0 26.69613,-1.62054 41.83788,-6.07795 l 10.31735,-3.03722 6.69075,6.30758 c 7.78272,7.33704 15.67867,12.80759 18.48589,12.80759 1.78038,0 1.91593,0.50893 1.41869,5.32669 -2.78184,26.9535 -18.10709,48.77339 -43.09391,61.35655 -12.98369,6.53849 -31.84764,9.48254 -46.39064,7.24008 z m -118.32783,-65.95589 c -16.64034,-1.94587 -38.27789,-15.18522 -50.24066,-30.74071 -2.42224,-3.1497 -6.07526,-9.04706 -8.11783,-13.10524 -4.42856,-8.7987 -6.08335,-20.47146 -5.21804,-36.80789 0.46866,-8.84805 0.98729,-11.14731 3.94737,-17.5 4.3673,-9.37271 11.65373,-19.98461 19.02416,-27.70659 l 5.81267,-6.08992 7.2897,4.00082 c 8.45201,4.63874 19.67708,8.66012 26.81725,9.6073 7.40096,0.98177 9.07749,3.08076 13.70891,17.16335 2.22278,6.75871 5.42305,15.08371 7.11173,18.5 5.44355,11.01265 24.04962,33.6567 32.41371,39.44829 l 2.96663,2.0542 -2.22026,6.85448 c -2.6931,8.31422 -4.213,16.19187 -4.213,21.83598 0,2.74641 -0.61114,4.7616 -1.75909,5.80048 -2.62491,2.37551 -15.54416,5.60552 -26.79658,6.69956 -11.036,1.073 -11.23127,1.07287 -20.52667,-0.0141 z m 229.73614,-2.54655 c -3.76541,-0.83651 -9.2181,-2.40838 -12.11711,-3.49304 -5.15711,-1.92952 -5.28456,-2.07417 -5.90325,-6.69997 -0.34779,-2.60033 -2.04922,-10.2893 -3.78097,-17.0866 l -3.14863,-12.35874 3.39808,-2.55522 c 9.36406,-7.04139 24.18879,-25.03224 30.86879,-37.46143 2.14776,-3.99623 5.72585,-13.31768 7.95131,-20.71433 2.22547,-7.39664 4.61593,-13.98257 5.31214,-14.63539 0.69621,-0.65283 4.83435,-1.96224 9.19587,-2.90982 4.36151,-0.94758 12.23651,-3.52608 17.5,-5.73 5.26348,-2.20392 11.30827,-4.51173 13.43287,-5.12846 l 3.86289,-1.12133 5.73035,6.09656 c 6.80728,7.24232 16.44066,21.41578 18.47522,27.18235 1.9395,5.49712 3.57263,17.69146 3.55128,26.5169 -0.0469,19.37219 -8.7722,38.16867 -24.20626,52.14613 -7.99865,7.24377 -15.61204,11.85811 -26.01587,15.76775 -7.62575,2.86566 -9.37473,3.12731 -22.76051,3.40489 -10.28637,0.21331 -16.48947,-0.14128 -21.3462,-1.22025 z m -127.1538,-32.23198 c -2.2,-1.01863 -5.4805,-2.1452 -7.29,-2.50348 -6.56424,-1.29972 -33.29879,-15.92996 -31.81712,-17.41164 0.72119,-0.72119 23.6501,6.96191 33.87031,11.34938 4.53025,1.94481 9.58681,3.56334 11.23681,3.59675 5.34532,0.10821 27.61647,-3.26716 31.86726,-4.82974 2.27301,-0.83556 7.52493,-2.60291 11.67094,-3.92746 4.76661,-1.52281 9.0642,-3.71447 11.68861,-5.96087 4.43668,-3.79763 9.93886,-6.50184 13.22911,-6.50184 2.94229,0 20.93484,-5.87025 25.14268,-8.20306 2.87022,-1.59123 3.93175,-3.0519 5.24453,-7.21654 2.13828,-6.78339 5.59473,-10.21921 8.64066,-8.58907 1.19487,0.63947 2.81219,0.9172 3.59403,0.61718 0.78185,-0.30002 3.76986,-5.32767 6.64001,-11.17256 5.51356,-11.22798 7.56585,-12.78588 3.42778,-2.60203 -3.80854,9.37288 -12.87433,24.02956 -19.10089,30.88045 -11.57686,12.73766 -28.7286,23.65439 -47.10019,29.97831 l -10.94453,3.76735 -23,0.29047 c -20.65866,0.2609 -23.40719,0.10193 -27,-1.5616 z m -9,-18.1889 c -0.33992,-0.55 0.0835,-1 0.94098,-1 0.85746,0 1.55902,0.45 1.55902,1 0,0.55 -0.42344,1 -0.94098,1 -0.51754,0 -1.2191,-0.45 -1.55902,-1 z m 5.08053,-11.95888 c -3.15355,-4.97454 -8.87125,-12.30633 -12.706,-16.29287 -3.83474,-3.98654 -7.90903,-9.04825 -9.05398,-11.24825 -1.14495,-2.2 -2.91756,-5.18688 -3.93913,-6.63752 -2.26284,-3.21322 -1.57824,-3.95608 5.88735,-6.38839 6.11378,-1.99188 8.27916,-1.71214 20.48123,2.64599 l 8.75,3.12517 v 15.19372 c 0,14.36246 -1.23131,26.09277 -2.92378,27.85389 -0.41907,0.43608 -3.34213,-3.27721 -6.49569,-8.25174 z m -52.30098,-5.29506 c -4.06044,-4.4236 -14.1765,-20.85335 -16.31407,-26.49611 -6.71254,-17.7197 -8.60388,-45.23755 -4.17542,-60.74995 5.20123,-18.21936 16.01443,-34.76595 32.51165,-49.75 8.4671,-7.69048 9.69829,-8.56284 9.69829,-6.87173 0,1.76523 -13.38833,15.27919 -16.92431,17.08311 -4.57924,2.33616 -6.94783,6.28283 -5.10398,8.50453 1.96268,2.36489 5.29868,1.88387 18.77248,-2.70684 l 12.4472,-4.24093 2.01937,2.49093 c 2.89209,3.56745 2.09727,13.47982 -1.68315,20.99093 -1.52252,3.025 -2.91019,5.65862 -3.08372,5.85248 -0.17353,0.19386 -3.59295,-2.40631 -7.59871,-5.77816 -7.84,-6.59933 -11.78562,-8.27727 -16.05432,-6.82735 -4.72322,1.6043 -4.65445,4.65902 0.20192,8.96867 2.34544,2.0814 4.88156,3.78436 5.63583,3.78436 0.75426,0 1.37139,0.45 1.37139,1 0,0.55 -1.99234,1 -4.42742,1 -3.59194,0 -4.81853,0.49721 -6.5,2.63486 -2.8773,3.6579 -2.71186,8.81677 0.38197,11.91059 3.30285,3.30286 4.98803,3.09254 7.47597,-0.93303 3.70259,-5.99092 4.28671,-6.0892 9.88577,-1.6634 l 5.05503,3.99577 -3.3398,7.77761 c -1.83688,4.27768 -3.87046,10.39218 -4.51905,13.58778 -0.77415,3.81425 -2.18118,6.95131 -4.09586,9.13202 -3.41477,3.8892 -3.79872,7.98997 -0.91661,9.78987 1.1,0.68696 2,1.59078 2,2.00848 0,3.06044 -14.17402,-3.46871 -20.74483,-9.55595 -2.61534,-2.42287 -5.84455,-4.97505 -7.176,-5.67152 -3.41644,-1.78709 -5.44931,1.00316 -4.62046,6.34189 0.92679,5.96952 3.2369,9.63415 6.48235,10.28324 2.11523,0.42305 3.52912,1.80968 5.45694,5.35172 3.12584,5.7432 3.15257,6.01007 0.602,6.01007 -4.9006,0 -1.17544,9.69971 8.15474,21.23363 2.71446,3.35562 1.98067,4.62371 -0.87519,1.51243 z m 107.63571,-28.43589 c -2.32304,-2.09559 -7.36818,-7.57232 -11.21141,-12.1705 -7.44294,-8.90499 -10.97855,-11.13967 -17.62468,-11.13967 -7.95315,0 -10.7615,-3.00911 -11.1994,-12 -0.5105,-10.48144 -0.11175,-12.019 4.12023,-15.88741 4.21318,-3.85123 4.93125,-6.09483 2.5762,-8.04935 -1.11727,-0.92725 -2.29276,-0.73833 -5.46016,0.87756 -5.07571,2.58943 -5.11604,2.58544 -5.11604,-0.50654 0,-1.41116 -0.51788,-3.53341 -1.15084,-4.71611 -0.99976,-1.86807 -0.78169,-2.41739 1.66105,-4.18426 6.72325,-4.86304 8.08355,-6.43521 6.48979,-7.50058 -0.825,-0.55148 -2.78859,-1.00958 -4.36354,-1.018 -2.84018,-0.0152 -2.85785,-0.0533 -2.16494,-4.67394 1.38394,-9.22878 3.4578,-11.34137 11.13342,-11.34137 1.9111,0 5.19496,-0.87759 7.29746,-1.95021 4.05261,-2.06749 13.0976,-11.4057 13.0976,-13.5222 0,-0.69086 2.27492,-3.56719 5.05537,-6.39185 5.02096,-5.10079 5.09818,-5.13574 11.34501,-5.13574 4.82331,0 6.67548,-0.42634 7.94463,-1.82874 3.90129,-4.31087 0.85684,-6.42836 -9.63857,-6.7039 -6.14273,-0.16126 -9.46381,-0.79828 -13.20644,-2.53312 -3.76104,-1.74338 -7.72571,-2.49829 -16,-3.04655 -8.82996,-0.58508 -7.74494,-0.64382 5.5,-0.29779 18.34198,0.4792 28.93559,2.17588 36.46937,5.84096 2.76685,1.34603 6.15563,2.74952 7.53063,3.11887 6.19847,1.665 37,24.67246 37,27.63746 0,0.62043 1.76746,3.41963 3.92769,6.22044 13.69658,17.75802 22.88972,54.93527 17.08506,69.09237 -1.21975,2.97486 -1.23881,2.98115 -2.27422,0.75 -0.89097,-1.91991 -1.82347,-2.25 -6.35616,-2.25 -5.80742,0 -7.38237,-1.3867 -7.38237,-6.5 0,-3.97058 1.44369,-5.93452 6.96861,-9.47986 4.97432,-3.19201 5.0313,-3.28699 5.02384,-8.37439 -0.0109,-7.45733 -1.8182,-17.60768 -3.85399,-21.64575 -1.0571,-2.09679 -3.2793,-4.25211 -5.54281,-5.37598 -2.07805,-1.03179 -4.62166,-3.26281 -5.65245,-4.95782 -1.84176,-3.02853 -1.8398,-3.11388 0.11348,-4.93363 1.09322,-1.01849 1.68424,-2.38747 1.31339,-3.04218 -1.70398,-3.00825 -3.87366,-4.69039 -6.04981,-4.69039 -1.61402,0 -2.67599,-0.80544 -3.33,-2.52563 -1.98239,-5.21407 -7.99026,-3.84756 -7.99026,1.81742 0,1.77178 -0.40243,4.6246 -0.89429,6.33961 -0.53174,1.85407 -0.51981,5.09461 0.0294,7.99339 0.50804,2.68137 0.62507,9.02068 0.26006,14.08737 l -0.66366,9.21216 -3.59361,-2.96216 c -3.81321,-3.14317 -8.16008,-3.84532 -10.00955,-1.61685 -0.61408,0.73992 -1.40043,2.76492 -1.74744,4.5 -0.34702,1.73508 -0.72779,3.15469 -0.84617,3.15469 -0.11838,0 -2.64963,-1.34185 -5.625,-2.98188 -6.97978,-3.84729 -12.95168,-4.06712 -16.41456,-0.60424 -4.1771,4.1771 -4.19984,6.99348 -0.14993,18.56953 2.02359,5.78412 3.67373,11.3673 3.66699,12.40706 -0.007,1.03976 0.96176,3.84077 2.15223,6.22446 l 2.16451,4.334 -3.95127,8.70446 c -2.1732,4.78745 -4.46596,8.87602 -5.09502,9.0857 -0.62906,0.20969 -3.04442,-1.33332 -5.36746,-3.42892 z m -19.44897,-54.27292 c 2.24664,-2.48251 1.32741,-5.03725 -1.81246,-5.03725 -3.0636,0 -5.00781,2.30934 -4.16906,4.95201 0.82281,2.59243 3.67575,2.63309 5.98152,0.0852 z m -70.65379,49.27964 c 0.72187,-0.28887 1.58438,-0.25335 1.91667,0.0789 0.33229,0.33229 -0.25834,0.56864 -1.3125,0.52522 -1.16495,-0.048 -1.4019,-0.28494 -0.60417,-0.60416 z M -696.7591,415.67662 c -15.19326,-16.69011 -21.70425,-31.83068 -21.82432,-50.75 -0.0332,-5.225 0.53869,-11.975 1.27077,-15 10.20392,-42.16303 53.9811,-66.61538 98.07521,-54.78126 l 8.5,2.28126 0.6094,11 c 0.44959,8.11531 1.30189,12.98655 3.25,18.57518 1.45233,4.16635 2.6406,8.15759 2.6406,8.86943 0,0.71184 -3.7382,5.22246 -8.30711,10.0236 -16.64951,17.49578 -25.21585,31.5744 -30.76351,50.55924 -1.76349,6.0349 -3.2861,11.07712 -3.38357,11.20493 -0.0975,0.1278 -4.5763,1.11731 -9.95295,2.19889 -12.84762,2.58448 -21.492,5.52547 -26.78521,9.11288 -2.36921,1.6057 -5.05739,2.92764 -5.97375,2.93765 -0.91635,0.01 -4.22635,-2.7943 -7.35556,-6.2318 z m 323.6706,-0.85372 c -5.14309,-2.216 -13.41779,-4.91666 -18.38823,-6.00147 -13.73071,-2.99677 -12.71315,-1.9737 -18.60799,-18.70891 -6.89784,-19.58272 -15.25118,-31.6924 -33.59652,-48.70429 l -10.33135,-9.58042 1.8796,-7.20059 c 3.04132,-11.65107 3.87007,-18.20902 2.79373,-22.10718 -0.53473,-1.93664 -1.3887,-3.77854 -1.89771,-4.09313 -2.0403,-1.26098 -11.7269,5.10493 -19.31655,12.69458 l -8.00204,8.00204 -7.09094,-2.08844 c -11.16657,-3.28879 -29.88947,-6.10847 -40.56079,-6.10847 -10.35237,0 -28.71369,2.74547 -40.81445,6.10276 l -7.2843,2.02099 -7.02472,-6.50381 c -7.88315,-7.29858 -16.18381,-13.10407 -22.0063,-15.39121 -4.53838,-1.78272 -4.81363,-3.27076 -2.36183,-12.76863 3.37711,-13.08239 11.81138,-27.00951 21.9915,-36.31357 15.49806,-14.16435 38.53301,-22.26334 59.26781,-20.8383 20.83929,1.43222 36.72684,9.20667 52.83431,25.85405 3.37269,3.48575 6.84592,7.68772 7.7183,9.33772 4.75783,8.99891 6.73794,13.77721 8.70233,21 1.19668,4.4 2.81469,9.50994 3.59558,11.35543 1.2751,3.01343 1.74758,3.30538 4.63572,2.86447 1.76874,-0.27002 6.5909,-1.77996 10.7159,-3.35543 7.3023,-2.78896 8.00084,-2.86447 26.5,-2.86447 h 19 l 8,3.31187 c 20.41744,8.45248 33.41033,20.12431 42.50539,38.18365 5.86636,11.64838 6.99604,16.24666 6.97983,28.41103 -0.0285,21.3649 -5.60015,34.95951 -20.83793,50.84345 -3.56148,3.7125 -7.18909,6.73321 -8.06135,6.71268 -0.87227,-0.0205 -5.79392,-1.8504 -10.937,-4.0664 z m -204.14894,-76.89628 c 0,-0.55 0.70156,-1 1.55902,-1 0.85746,0 1.2809,0.45 0.94098,1 -0.33992,0.55 -1.04148,1 -1.55902,1 -0.51754,0 -0.94098,-0.45 -0.94098,-1 z m 14,-5.45982 c 0,-0.65811 12.88848,-4.55068 14.85534,-4.4866 0.90456,0.0295 -1.95534,1.13699 -6.35534,2.46115 -9.29247,2.79652 -8.5,2.60769 -8.5,2.02545 z m 18.25,-5.22951 c 0.9625,-0.25152 2.5375,-0.25152 3.5,0 0.9625,0.25153 0.175,0.45733 -1.75,0.45733 -1.925,0 -2.7125,-0.2058 -1.75,-0.45733 z m -199.25,313.87993 c -5.81909,-1.86666 -12.7724,-10.977 -11.68494,-15.30978 1.3943,-5.55533 7.78831,-8.87105 10.59208,-5.49271 0.89978,1.08417 0.61236,2.02948 -1.31262,4.31719 -3.38075,4.01779 -4.15635,7.59001 -2.09542,9.65094 2.37502,2.37503 5.03832,2.02888 8.55316,-1.11163 2.99374,-2.6749 3.10697,-3.09275 3.8765,-14.3055 0.84789,-12.35439 1.5682,-14.61166 5.69978,-17.86156 5.63356,-4.43136 14.2952,-1.47655 18.94875,6.46412 2.5064,4.27685 2.52429,4.44201 0.8608,7.94755 -2.2162,4.6703 -5.08924,6.2882 -7.27863,4.09881 -1.47628,-1.47628 -1.41322,-1.96232 0.77404,-5.9663 2.71367,-4.9676 2.3072,-7.19952 -1.58032,-8.67755 -5.6525,-2.14908 -7.92068,1.37055 -9.39225,14.5743 -1.36221,12.22253 -2.33511,15.54497 -5.3933,18.41798 -2.50817,2.35631 -8.04829,4.0623 -10.56763,3.25414 z m 414.80985,-7.54246 c -11.60853,-10.33545 -20.80985,-20.69867 -20.80985,-23.43761 0,-2.79689 2.60382,-5.21053 5.62109,-5.21053 2.98614,0 5.68204,1.3287 19.52299,9.62212 5.85425,3.50784 11.14175,6.37788 11.75,6.37788 3.28979,0 -0.13807,-5.37273 -11.79481,-18.48686 -6.79706,-7.64687 -8.42393,-10.51314 -5.96718,-10.51314 0.62265,0 8.38515,7.20854 17.25,16.01898 l 16.11791,16.01897 -3.35704,3.06257 c -4.80341,4.38206 -4.03006,4.65712 -28.05257,-9.97739 -7.7483,-4.72026 -12.09039,-6.28093 -12.09039,-4.34564 0,1.39174 3.21543,5.42188 13.1933,16.53614 5.39368,6.00798 9.8067,11.32023 9.8067,11.80499 0,1.98864 -2.26202,0.47853 -11.19015,-7.47048 z m 126.29608,1.19534 c -3.12847,-1.15729 -2.55378,-2.66884 1.28877,-3.3897 3.46924,-0.65084 8.08967,0.95348 7.14555,2.4811 -0.76439,1.23681 -6.01736,1.80269 -8.43432,0.9086 z m -581.98847,-41.1632 c -2.2646,-3.47584 -4.11746,-6.75479 -4.11746,-7.28654 0,-1.23654 8.02693,-7.23499 14.5,-10.83571 2.75,-1.52972 9.13502,-5.24512 14.18894,-8.25644 6.43602,-3.83483 9.79205,-5.28371 11.20206,-4.83619 1.17075,0.37159 3.12818,3.02314 4.67794,6.33677 1.46564,3.13381 3.37449,6.5047 4.24187,7.49086 1.39285,1.5836 1.39696,1.72393 0.0352,1.20139 -0.848,-0.32541 -2.52374,-1.91978 -3.72387,-3.54304 -2.50615,-3.38974 -6.39996,-3.89333 -11.1422,-1.44103 -4.96452,2.56726 -6.54343,8.10457 -3.32499,11.66091 2.80158,3.09571 -0.0984,2.01911 -3.15499,-1.17126 -1.5808,-1.65 -3.77112,-3 -4.86737,-3 -1.09626,0 -4.89156,1.88836 -8.434,4.19635 l -6.4408,4.19635 0.52626,5.80365 c 0.28944,3.19201 0.39678,5.80365 0.23854,5.80365 -0.15824,0 -2.14057,-2.84387 -4.40517,-6.31972 z m 500.35979,0.78351 c -9.04704,-5.35235 -27.93833,-19.75217 -28.26858,-21.54764 -0.29997,-1.63088 8.55842,-14.4824 9.40144,-13.63937 0.25914,0.25914 -0.50725,2.12944 -1.70309,4.15623 -1.79209,3.03738 -1.97858,4.11451 -1.06102,6.12833 1.33065,2.92046 6.75092,6.42971 9.93918,6.43492 2.86763,0.005 7.21482,-2.77377 7.21482,-4.61127 0,-0.76174 0.45,-1.38499 1,-1.38499 1.3894,0 1.28245,0.52602 -1.02758,5.05405 -1.54979,3.03784 -1.7819,4.43343 -0.985,5.92244 1.10606,2.0667 7.2609,6.58733 12.92195,9.49098 l 3.40938,1.74872 3.30308,-3.85809 c 3.2569,-3.80416 4.4421,-3.30154 2.25818,0.95764 -1.75985,3.43213 -7.11157,8.68426 -8.84893,8.68426 -0.86712,0 -4.26635,-1.5913 -7.55383,-3.53621 z m 30.75751,-39.44368 c -4.86647,-2.20887 -6.20315,-4.48029 -3.95786,-6.72558 1.27143,-1.27143 2.13256,-1.34744 4.78597,-0.42246 5.28461,1.84223 8.88445,1.44457 9.82011,-1.08477 1.28989,-3.48689 0.1117,-5.89158 -3.6584,-7.46683 -3.09297,-1.29232 -4.33808,-1.26661 -11.10408,0.2293 -4.19128,0.92666 -10.85565,1.90485 -14.80972,2.17376 -6.70394,0.45593 -7.36208,0.31607 -9.75,-2.07184 -5.95372,-5.95372 -0.0704,-21.65169 8.11467,-21.65169 3.37122,0 7.21053,2.06541 7.90467,4.25242 1.02092,3.21666 -0.97476,4.24553 -5.56654,2.86979 -5.58477,-1.67323 -9.51358,0.12803 -9.51358,4.36173 0,6.17204 8.0102,6.84947 23.42212,1.98085 l 7.99846,-2.52671 5.54542,3.12964 c 6.12341,3.45584 7.13169,5.43951 6.21995,12.237 -0.44122,3.28959 -1.52395,5.09357 -5.06535,8.43959 -2.4773,2.34063 -4.86788,4.24581 -5.31239,4.23373 -0.44452,-0.0121 -2.72757,-0.89315 -5.07345,-1.95793 z m -554.54309,-6.06722 c -1.9053,-2.22591 -4.37079,-6.22866 -5.47886,-8.89499 l -2.01469,-4.84787 4.65094,-2.48688 c 2.55802,-1.36779 12.27544,-5.51921 21.59426,-9.22539 l 16.94332,-6.7385 1.75017,2.16137 c 2.1703,2.68021 5.86319,12.37625 5.86319,15.39438 0,4.02802 -3.15761,6.88708 -12.40134,11.22881 -11.87386,5.57709 -17.68432,7.45618 -23.05568,7.45618 -3.88952,0 -4.78006,-0.45904 -7.85131,-4.04711 z m 15.5355,-4.31419 c 9.06076,-3.41076 19.97004,-9.08264 22.18149,-11.53244 1.59753,-1.76972 1.7212,-2.52583 0.75866,-4.63839 -0.63251,-1.3882 -1.77499,-2.76382 -2.53884,-3.05694 -1.4977,-0.57472 -22.25868,7.08984 -29.62848,10.93827 -5.12941,2.67853 -7.38674,6.05966 -5.9001,8.83747 1.37481,2.56884 7.43011,2.3495 15.12727,-0.54797 z m -16.60463,-69.13905 c 14.877,-7.47752 21.60536,-8.91584 22.1976,-4.74518 0.1768,1.24506 -0.27094,2.42103 -1,2.62647 -2.89299,0.81522 -30.44901,7.87559 -32.32014,8.28103 -1.1,0.23835 3.90515,-2.53469 11.12254,-6.16232 z m 548.76656,-4.47936 c -2.59974,-1.05045 -3.6114,-3.39799 -2.11096,-4.89843 2.00628,-2.00628 30.72186,-1.21921 30.72186,0.84206 0,0.91839 -19.61594,5.07747 -23.5,4.98259 -1.65,-0.0403 -3.9499,-0.4571 -5.1109,-0.92622 z m -555.55181,-18.53432 c 16.2812,-7.6381 24.66271,-9.35498 24.66271,-5.05192 0,1.44115 -1.36639,2.40633 -5.3615,3.78721 -7.1181,2.46031 -18.38055,4.7874 -22.95388,4.74282 -3.55989,-0.0347 -3.43624,-0.15244 3.65267,-3.47811 z m 556.41271,-5.14825 c -1.82345,-0.73578 -1.52856,-4.01685 0.42852,-4.76785 2.92304,-1.12168 29.62892,-1.74607 34.32148,-0.80245 l 4.5,0.90489 -7,0.75805 c -3.85,0.41693 -10.44998,1.61566 -14.66661,2.66385 -7.28041,1.80979 -14.85283,2.34531 -17.58339,1.24351 z m -570.25,-14.1557 c 0,-0.44988 3.7125,-1.33321 8.25,-1.96294 4.5375,-0.62973 10.95,-2.27596 14.25,-3.65829 7.0756,-2.96387 14.24226,-3.39602 15.19386,-0.91618 1.06544,2.77649 -2.0909,3.97125 -15.06051,5.70082 -13.45353,1.79411 -22.63335,2.13342 -22.63335,0.83659 z m 571.25,-7.8443 c -2.63434,-1.06298 -1.32506,-4.10106 2.03939,-4.73223 5.67638,-1.0649 22.96966,-2.55723 28.71061,-2.4776 5.32973,0.0739 5.39165,0.10609 2,1.03888 -1.925,0.52942 -8,2.29256 -13.5,3.91808 -9.18782,2.71545 -16.09909,3.52429 -19.25,2.25287 z m -554.75,-19.00764 c 13.78024,-4.41442 24.09837,-3.93775 22.19386,1.02531 -0.54758,1.42699 -2.58702,1.63752 -15.41248,1.59103 l -14.78138,-0.0536 8,-2.56276 z m 553.60428,-2.24568 c -0.76764,-0.4854 -1.13483,-1.5624 -0.81597,-2.39334 0.90296,-2.35309 18.02275,-6.72917 26.01091,-6.64879 l 4.20078,0.0423 -5.87606,2.4399 c -3.23183,1.34195 -6.38183,2.83928 -7,3.32741 -2.879,2.27336 -14.45445,4.53843 -16.51966,3.23255 z m -553.10428,-18.71729 c -10.72273,-0.62467 -12.57867,-1.65777 -4.5,-2.5049 18.45656,-1.93536 26.94852,-2.09353 28.99843,-0.54013 1.09913,0.83292 1.70304,1.80979 1.34201,2.17082 -0.82398,0.82397 -17.19544,1.37784 -25.84044,0.87421 z m 548.66667,-4.03378 c -0.36667,-0.36666 -0.66667,-1.46443 -0.66667,-2.43948 0,-1.79664 6.70951,-4.25657 22.86062,-8.38147 10.60964,-2.70964 9.45165,-1.28175 -5.15917,6.36167 -9.07858,4.7493 -15.15429,6.33978 -17.03478,4.45928 z m 32.09499,-13.04059 c 1.24391,-0.23919 3.04391,-0.23011 4,0.0202 0.95609,0.25029 -0.0617,0.446 -2.26166,0.4349 -2.2,-0.0111 -2.98225,-0.21589 -1.73834,-0.45508 z m -562.26166,-3.89006 c -18.89963,-2.87714 -22.48862,-3.61207 -21.94386,-4.49352 0.30904,-0.50004 7.42433,-0.90916 15.81175,-0.90916 16.93598,0 19.87889,0.80186 17.72354,4.82917 -0.63899,1.19395 -1.48346,2.1197 -1.87661,2.05721 -0.39315,-0.0625 -4.76482,-0.73015 -9.71482,-1.4837 z m 524.80614,-4.04729 c -1.08702,-2.83272 8.7295,-8.39527 23.61885,-13.38366 12.15813,-4.07335 15.54858,-3.82603 6.40053,0.46688 -3.94596,1.85173 -10.24596,5.35294 -14,7.78047 -6.16236,3.98486 -12.14385,6.78092 -14.50613,6.78092 -0.48519,0 -1.16615,-0.74007 -1.51325,-1.64461 z m -509.50065,-14.88323 c -0.28077,-0.28077 -6.53936,-1.81438 -13.90799,-3.40802 -20.08402,-4.34366 -20.59808,-4.92009 -3.8975,-4.37037 16.14964,0.53158 21,1.51581 21,4.26134 0,1.87234 -2.30333,4.40823 -3.19451,3.51705 z m 504.19451,-4.98458 c 0,-1.94528 8.87443,-7.60754 20.71155,-13.21484 11.19717,-5.30415 15.17387,-5.33822 5.96075,-0.0511 -3.56686,2.04692 -8.58712,5.54087 -11.15613,7.76434 -2.56902,2.22346 -5.96377,4.71121 -7.54389,5.52833 -3.7838,1.95667 -7.97228,1.94262 -7.97228,-0.0268 z m -494.5,-16.0003 c -0.55,-0.19516 -7.525,-2.39019 -15.5,-4.87786 -16.52645,-5.15514 -22.68165,-8.24988 -11.92891,-5.99766 3.5359,0.74061 8.26636,1.35594 10.51213,1.3674 10.81934,0.0552 19.41678,3.62397 19.41678,8.0598 0,1.91246 -0.45274,2.17474 -2.5,1.44832 z m 484.57097,-4.90177 c -1.33225,-1.60526 -0.99818,-1.89788 10.42903,-9.13534 8.68299,-5.49939 21.26061,-11.69663 22.73885,-11.20389 0.608,0.20267 -1.41545,1.7912 -4.49655,3.53006 -6.70443,3.78375 -12.7423,8.9046 -12.7423,10.80702 0,1.69773 -9.71142,7.39439 -12.62756,7.40726 -1.17015,0.005 -2.65581,-0.62714 -3.30147,-1.40511 z m -19.81195,-30.83551 c -10.27081,-13.55747 -10.86119,-14.59903 -9.16333,-16.16602 3.50834,-3.23792 31.73023,-21.58398 33.20281,-21.58398 0.90758,0 2.372,1.39592 3.25427,3.10204 1.5367,2.97165 1.50625,3.20651 -0.72432,5.58726 -1.28065,1.36687 -5.70345,4.86855 -9.82845,7.78152 -4.125,2.91296 -8.76727,6.64189 -10.31616,8.28651 -2.7918,2.96435 -2.80222,3.02375 -1.20485,6.86645 0.88622,2.13192 2.98502,5.59213 4.66401,7.68935 2.93128,3.66145 2.98299,3.89018 1.29987,5.75 -0.96407,1.06528 -2.29812,1.93687 -2.96456,1.93687 -0.66644,0 -4.36512,-4.1625 -8.21929,-9.25 z m -455.75902,3.94495 c -4.54756,-2.47056 -26.28072,-15.7143 -28.31723,-17.25594 -0.62013,-0.46943 4.8664,-10.43901 5.74487,-10.43901 0.49167,0 1.84498,-1.9125 3.00735,-4.25 3.14929,-6.33316 8.49265,-12.18361 10.44377,-11.4349 2.42077,0.92894 1.96853,3.9054 -1.27336,8.38071 -6.65923,9.1928 -7.32861,13.3341 -2.51012,15.52956 3.31368,1.50981 5.75923,-0.0241 11.68717,-7.3307 2.63034,-3.24207 5.21784,-5.89467 5.75,-5.89467 2.05822,0 0.81032,5.58895 -2.61582,11.71546 -1.97085,3.52421 -3.33472,7.05562 -3.03081,7.84758 0.3039,0.79196 2.1198,2.1873 4.03533,3.10075 4.21174,2.00844 4.51375,1.81376 12.27705,-7.91379 4.96837,-6.22547 8.2597,-8.24516 9.68315,-5.94198 1.15837,1.87428 -15.51794,27.20861 -17.88135,27.165 -0.55,-0.0101 -3.7,-1.48528 -7,-3.27807 z m 437.08889,-28.77168 c -1.6705,-1.98528 -2.58889,-4.27875 -2.58889,-6.4652 0,-5.89718 -8.26455,-13.45807 -14.71056,-13.45807 -2.58262,0 -8.28944,-4.00757 -8.28944,-5.82119 0,-0.40715 9.08505,-4.64386 20.18901,-9.41493 l 20.18901,-8.67467 4.2168,3.7054 c 2.31923,2.03796 4.25918,4.31809 4.31099,5.06694 0.12572,1.81738 -18.81487,38.13845 -19.88832,38.13845 -0.46184,0 -2.0047,-1.38453 -3.4286,-3.07673 z m 5.17473,-18.17327 c 2.43733,-2.59628 6.18217,-10.43015 6.21442,-13 0.0129,-1.02795 -0.72223,-1.75 -1.7817,-1.75 -2.39777,0 -10.94553,4.34574 -14.69634,7.47173 l -3,2.50024 3.73531,3.51402 c 4.34345,4.08611 6.59819,4.38522 9.52831,1.26401 z m -424.39779,9.3314 c -6.21779,-3.79142 -11.5966,-13.09974 -11.5966,-20.06853 0,-8.09619 6.58611,-17.36184 14.12999,-19.87876 5.10698,-1.70388 13.03407,-1.47152 13.75345,0.40314 1.03681,2.70188 -2.38835,5.18289 -7.88429,5.71098 -4.31755,0.41487 -5.67663,1.07515 -8.45635,4.10835 -4.45838,4.86493 -4.44244,8.87536 0.0587,14.77033 3.53058,4.62387 11.83239,9.87309 15.61459,9.87309 1.21807,0 3.74467,-1.53 5.61467,-3.4 2.71921,-2.71921 3.4,-4.19107 3.4,-7.35078 0,-5.15925 1.74932,-10.04469 4.03463,-11.26775 2.53375,-1.35603 5.96537,3.10351 5.96537,7.75226 0,6.77716 -6.57285,16.25934 -13.42926,19.37346 -5.67909,2.57938 -16.95501,2.56567 -21.20491,-0.0258 z m 372.61395,-32.11917 c -1.52045,-2.841 -0.5395,-5.18431 4.92262,-11.7592 7.25553,-8.73367 11.0976,-14.33291 11.0976,-16.17307 0,-0.91848 -1.6191,-3.56151 -3.59799,-5.87341 -3.81422,-4.45605 -3.9418,-7.15655 -0.33811,-7.15655 2.73343,0 17.7079,10.00707 24.80251,16.57491 3.90593,3.61591 5.29715,5.55648 4.83915,6.75 -0.89807,2.34033 -3.31923,2.09154 -8.35277,-0.85831 -3.97472,-2.32934 -4.54581,-2.41814 -7.09009,-1.10245 -1.52194,0.78703 -6.09347,5.54591 -10.15896,10.5753 -4.06548,5.02939 -8.1974,9.57549 -9.18202,10.10245 -2.8996,1.55181 -5.77276,1.10496 -6.94194,-1.07967 z m -331.5575,-0.38066 c -1.69275,-0.73708 -4.80089,-2.85311 -6.90698,-4.70228 -13.87941,-12.18629 -7.18842,-32.67595 12.0785,-36.98769 4.23413,-0.94756 6.28212,-0.94574 9.46676,0.008 8.64328,2.58959 16.90889,13.76514 16.92967,22.88984 0.0108,4.75384 -2.55116,10.55022 -6.14291,13.89809 -6.06571,5.65384 -18.28012,8.00479 -25.42504,4.89364 z m 18.94162,-8.02922 c 3.7037,-3.99635 4.80737,-9.08383 2.96794,-13.68102 -1.78544,-4.46225 -10.10637,-12.40391 -13.72008,-13.09472 -3.45171,-0.65983 -7.74221,1.40128 -11.01603,5.29199 -2.35194,2.79512 -2.7192,3.97419 -2.27334,7.29836 1.56411,11.66126 17.6077,21.12759 24.04151,14.18539 z m 288.56481,-6.56994 c -4.96049,-2.56522 -5.57285,-3.60733 -6.35796,-10.81989 -0.84835,-7.79352 -4.2602,-19.16252 -5.75069,-19.16252 -1.50461,0 -3.20911,2.3406 -7.41015,10.17553 -1.96866,3.67154 -4.24475,6.93085 -5.05799,7.24292 -2.08643,0.80064 -7.35192,-2.14304 -7.35192,-4.1101 0,-1.73896 12.91502,-26.9017 16.19763,-31.55835 2.96747,-4.20959 7.83058,-3.33903 10.62142,1.90136 0.63016,1.18326 1.84153,6.47531 2.69194,11.76012 2.89628,17.99871 4.36616,18.65306 11.84792,5.27443 4.56785,-8.16808 5.92712,-9.33225 9.1707,-7.85437 1.65005,0.75181 2.47039,1.94028 2.47039,3.579 0,2.34146 -10.39271,24.03573 -15.21189,31.75408 l -2.28811,3.66461 z m -248.29842,-15.23241 c -0.33164,-1.2375 -0.60913,-11.05532 -0.61664,-21.81738 l -0.0136,-19.56738 5.58514,-1.76056 c 6.80396,-2.14476 5.01811,-3.4689 22.62135,16.77294 8.01417,9.21543 12.58288,15.23301 12.00446,15.81143 -1.19638,1.19638 -6.42659,1.34064 -12.39208,0.34178 -4.07935,-0.68304 -5.52633,-0.38828 -11.25581,2.29286 -4.50246,2.10696 -6.87294,3.86116 -7.521,5.56569 -1.73643,4.56714 -7.39489,6.15509 -8.41177,2.36062 z m 18.63758,-15.28605 c 2.05267,-1.39483 3.73213,-2.90914 3.73213,-3.36514 0,-2.49779 -9.85508,-13.09881 -12.17711,-13.09881 -3.4805,0 -3.77325,11.37443 -0.4243,16.48557 2.08137,3.17658 4.1702,3.17149 8.86928,-0.0216 z m 172.73213,8.45441 c -12.16025,-3.71193 -17.19767,-5.96086 -16.63518,-7.42669 0.24633,-0.64193 1.85728,-6.30266 3.57989,-12.5794 1.72261,-6.27675 4.06931,-14.27846 5.21489,-17.78158 l 2.08287,-6.3693 4.12876,0.5753 c 6.47658,0.90246 27.94166,8.05131 27.51366,9.16331 -0.45808,1.19017 -7.99258,1.22985 -16.53464,0.0871 -5.93435,-0.79391 -6.20965,-0.7313 -7.86023,1.78781 -3.16168,4.82533 -1.46705,7.25116 6.76908,9.68983 7.65412,2.26633 10.06884,3.59564 9.17087,5.04859 -0.77021,1.24623 -7.68616,1.10278 -13.14884,-0.27274 -4.29686,-1.08196 -4.72735,-1.00774 -6.44282,1.11078 -2.54748,3.146 -2.3609,7.23146 0.41169,9.01462 1.2375,0.79589 5.84576,2.37661 10.24058,3.51273 6.02006,1.55626 8.07881,2.52385 8.34839,3.92365 0.83978,4.36064 -3.78017,4.50221 -16.83897,0.51601 z m -146.42182,-8.16836 c -0.19747,-0.6875 -1.15525,-9.01324 -2.12838,-18.50164 -2.10598,-20.53405 -1.76204,-22.24836 4.46366,-22.24836 7.27792,0 8.33717,0.95957 12.4052,11.23776 3.53245,8.925 6.58849,13.76224 8.69462,13.76224 1.84229,0 3.96081,-5.96465 5.84063,-16.44418 1.05113,-5.85982 2.07651,-10.81902 2.27862,-11.02045 0.20211,-0.20143 3.52998,-0.67759 7.39527,-1.05812 l 7.0278,-0.69188 2.29258,17.35731 c 1.26092,9.54653 2.49039,18.25732 2.73215,19.35732 0.54436,2.47677 -0.45929,4.03694 -3.13279,4.86991 -3.53386,1.10102 -5.32138,-1.41036 -7.02504,-9.86991 -1.70522,-8.4673 -3.56247,-11.76003 -5.52579,-9.79671 -0.61466,0.61466 -2.20785,5.32037 -3.54042,10.45714 -1.34646,5.19032 -3.28562,10.20479 -4.36487,11.28709 -1.92443,1.92989 -1.96414,1.92673 -4.3859,-0.34839 -1.34414,-1.26275 -3.42895,-4.61413 -4.63291,-7.44752 -2.41788,-5.69018 -6.53569,-11.65161 -8.04825,-11.65161 -1.91125,0 -2.61732,4.63173 -2.01986,13.25 l 0.60659,8.75 h -4.28693 c -2.57138,0 -4.43061,-0.50023 -4.64598,-1.25 z m 109.51237,0.32712 c -1.19843,-0.75866 -1.07362,-2.83342 0.8336,-13.85742 1.23368,-7.13084 2.99996,-16.05994 3.92507,-19.84243 1.62431,-6.6413 1.78213,-6.86995 4.59974,-6.6639 4.85122,0.35476 5.55104,0.99676 5.55104,5.09248 0,4.36356 -4.53699,29.84614 -5.99812,33.68921 -0.75088,1.97496 -1.64522,2.5017 -4.22713,2.48963 -1.80111,-0.008 -3.909,-0.41683 -4.6842,-0.90757 z m -43.12452,-2.99959 c -6.5054,-1.27471 -6.33503,-0.69725 -5.59963,-18.97964 0.3672,-9.12884 0.94688,-17.88476 1.28817,-19.45759 l 0.62053,-2.85971 13.61245,0.40953 c 14.88549,0.44784 19.21386,1.74359 21.32862,6.38499 0.9223,2.02422 0.73093,3.44045 -1.04335,7.72122 -2.68129,6.46911 -2.69462,6.04188 0.32718,10.48886 5.06043,7.44709 1.92144,14.10085 -7.61733,16.14655 -5.43948,1.16656 -17.32143,1.24215 -22.91664,0.14579 z m 20.57942,-7.53208 c 1.35,-1.35 2.45455,-3.08931 2.45455,-3.86514 0,-2.68839 -4.06685,-6.60223 -7.53676,-7.25318 -7.18822,-1.34852 -11.46324,1.49163 -11.46324,7.61571 0,3.54081 0.2993,3.9864 3.25,4.83838 6.13168,1.77046 10.64241,1.31728 13.29545,-1.33577 z m -1,-17 c 5.0299,-5.02989 1.85156,-10.54545 -6.07683,-10.54545 -6.26047,0 -7.92938,1.93265 -7.58377,8.78222 0.2298,4.5544 9.65313,5.77071 13.6606,1.76323 z"
       id="path293" />
  </g>
</svg>
